<svg width="24" height="25" viewBox="0 0 24 25" fill="none" xmlns="http://www.w3.org/2000/svg">
<g clip-path="url(#clip0_346_13130)">
<path d="M0.697376 12.3563C0.696818 14.3728 1.2237 16.3417 2.22556 18.0771L0.601562 24.0066L6.66966 22.4156C8.34802 23.3292 10.2285 23.808 12.1394 23.8081H12.1444C18.4528 23.8081 23.588 18.6748 23.5907 12.3653C23.5919 9.30792 22.4023 6.43295 20.241 4.26997C18.0801 2.10718 15.2061 0.915458 12.144 0.914062C5.83487 0.914062 0.700074 6.04709 0.697469 12.3563" fill="url(#paint0_linear_346_13130)"/>
<path d="M0.287035 12.3527C0.286384 14.4417 0.832151 16.481 1.86973 18.2786L0.1875 24.4207L6.47317 22.7726C8.20508 23.7168 10.155 24.2147 12.1392 24.2154H12.1443C18.679 24.2154 23.9987 18.8975 24.0015 12.3621C24.0026 9.19488 22.7702 6.21656 20.5317 3.97609C18.2929 1.73591 15.3162 0.501302 12.1443 0.5C5.60852 0.5 0.28964 5.81721 0.287035 12.3527ZM4.03038 17.969L3.79569 17.5965C2.80908 16.0277 2.28834 14.2149 2.28908 12.3534C2.29113 6.9213 6.71197 2.50186 12.1481 2.50186C14.7806 2.50298 17.2547 3.52921 19.1155 5.39116C20.9762 7.2533 22.0002 9.72865 21.9995 12.3614C21.9971 17.7935 17.5762 22.2135 12.1443 22.2135H12.1404C10.3718 22.2126 8.63717 21.7376 7.12443 20.84L6.76443 20.6265L3.03438 21.6045L4.03038 17.969Z" fill="url(#paint1_linear_346_13130)"/>
<path d="M9.18249 7.39771C8.96054 6.9044 8.72695 6.89445 8.51588 6.8858C8.34305 6.87836 8.14547 6.87892 7.94807 6.87892C7.75049 6.87892 7.42947 6.95324 7.15812 7.24952C6.88649 7.54608 6.12109 8.26273 6.12109 9.72031C6.12109 11.1779 7.18277 12.5866 7.33077 12.7845C7.47895 12.982 9.38035 16.0689 12.3917 17.2564C14.8944 18.2433 15.4037 18.047 15.9469 17.9975C16.4901 17.9482 17.6998 17.2811 17.9466 16.5892C18.1936 15.8975 18.1936 15.3046 18.1195 15.1807C18.0455 15.0572 17.8479 14.9831 17.5516 14.835C17.2553 14.6869 15.7987 13.9701 15.5271 13.8712C15.2555 13.7724 15.058 13.7231 14.8604 14.0198C14.6629 14.3159 14.0955 14.9831 13.9226 15.1807C13.7498 15.3787 13.5769 15.4034 13.2807 15.2552C12.9843 15.1065 12.0301 14.7941 10.8981 13.7849C10.0174 12.9996 9.42277 12.0298 9.24993 11.7331C9.07709 11.437 9.23142 11.2764 9.37998 11.1288C9.51309 10.996 9.67635 10.7828 9.82463 10.6099C9.97235 10.4369 10.0217 10.3134 10.1204 10.1158C10.2193 9.91808 10.1698 9.74506 10.0959 9.59687C10.0217 9.44868 9.44593 7.98347 9.18249 7.39771Z" fill="white"/>
</g>
<defs>
<linearGradient id="paint0_linear_346_13130" x1="1150.06" y1="2310.17" x2="1150.06" y2="0.914062" gradientUnits="userSpaceOnUse">
<stop stop-color="#1FAF38"/>
<stop offset="1" stop-color="#60D669"/>
</linearGradient>
<linearGradient id="paint1_linear_346_13130" x1="1190.89" y1="2392.57" x2="1190.89" y2="0.5" gradientUnits="userSpaceOnUse">
<stop stop-color="#F9F9F9"/>
<stop offset="1" stop-color="white"/>
</linearGradient>
<clipPath id="clip0_346_13130">
<rect width="23.814" height="24" fill="white" transform="translate(0.1875 0.5)"/>
</clipPath>
</defs>
</svg>
