<svg width="36" height="36" viewBox="0 0 36 36" fill="none" xmlns="http://www.w3.org/2000/svg">
<g clip-path="url(#clip0_2063_2143)">
<path d="M20.7554 1.944L17.0001 0L13.2449 1.944L9.06437 2.5785L7.16987 6.3585L4.16162 9.3285L4.85012 13.5L4.16162 17.6715L7.16987 20.6415L9.06437 24.4215L13.2449 25.056L17.0001 27L20.7554 25.056L24.9359 24.4215L26.8304 20.6415L29.8386 17.6715L29.1501 13.5L29.8386 9.3285L26.8304 6.3585L24.9359 2.5785L20.7554 1.944ZM23.4464 4.62825L24.9854 7.6995L27.4289 10.1115L26.8709 13.5L27.4289 16.8885L24.9854 19.3005L23.4464 22.3717L20.0489 22.887L17.0001 24.4665L13.9514 22.887L10.5539 22.3717L9.01487 19.3005L6.57137 16.8885L7.13162 13.5L6.56912 10.1115L9.01487 7.6995L10.5539 4.62825L13.9514 4.113L17.0001 2.5335L20.0511 4.113L23.4464 4.62825Z" fill="white"/>
<path d="M8 26.5366V36.0001L17 33.7501L26 36.0001V26.5366L21.4595 27.2251L17 29.5336L12.5405 27.2251L8 26.5366Z" fill="white"/>
</g>
<defs>
<clipPath id="clip0_2063_2143">
<rect width="36" height="36" fill="white"/>
</clipPath>
</defs>
</svg>
