<svg width="46" height="45" viewBox="0 0 46 45" fill="none" xmlns="http://www.w3.org/2000/svg">
<rect x="0.625" y="0.375" width="44.25" height="44.25" rx="22.125" stroke="black" stroke-width="0.75"/>
<path fill-rule="evenodd" clip-rule="evenodd" d="M14.125 22.5474C14.125 22.3858 14.1892 22.2308 14.3035 22.1165C14.4177 22.0023 14.5727 21.9381 14.7343 21.9381H29.1064L25.2712 18.104C25.1568 17.9896 25.0925 17.8344 25.0925 17.6726C25.0925 17.5108 25.1568 17.3556 25.2712 17.2412C25.3856 17.1268 25.5408 17.0625 25.7026 17.0625C25.8644 17.0625 26.0196 17.1268 26.134 17.2412L31.0088 22.116C31.0656 22.1726 31.1106 22.2398 31.1413 22.3139C31.172 22.3879 31.1879 22.4673 31.1879 22.5474C31.1879 22.6276 31.172 22.7069 31.1413 22.781C31.1106 22.855 31.0656 22.9222 31.0088 22.9788L26.134 27.8536C26.0196 27.968 25.8644 28.0323 25.7026 28.0323C25.5408 28.0323 25.3856 27.968 25.2712 27.8536C25.1568 27.7392 25.0925 27.584 25.0925 27.4222C25.0925 27.2604 25.1568 27.1052 25.2712 26.9908L29.1064 23.1568H14.7343C14.5727 23.1568 14.4177 23.0926 14.3035 22.9783C14.1892 22.864 14.125 22.709 14.125 22.5474Z" fill="black"/>
</svg>
