<svg width="45" height="45" viewBox="0 0 45 45" fill="none" xmlns="http://www.w3.org/2000/svg">
<rect x="0.375" y="0.375" width="44.25" height="44.25" rx="22.125" stroke="black" stroke-width="0.75"/>
<path fill-rule="evenodd" clip-rule="evenodd" d="M30.9379 22.5474C30.9379 22.3858 30.8737 22.2308 30.7594 22.1165C30.6451 22.0023 30.4901 21.9381 30.3285 21.9381H15.9564L19.7916 18.104C19.8483 18.0474 19.8932 17.9801 19.9239 17.9061C19.9546 17.8321 19.9703 17.7527 19.9703 17.6726C19.9703 17.5925 19.9546 17.5132 19.9239 17.4391C19.8932 17.3651 19.8483 17.2979 19.7916 17.2412C19.735 17.1845 19.6677 17.1396 19.5937 17.1089C19.5197 17.0783 19.4403 17.0625 19.3602 17.0625C19.2801 17.0625 19.2008 17.0783 19.1267 17.1089C19.0527 17.1396 18.9855 17.1845 18.9288 17.2412L14.054 22.116C13.9973 22.1726 13.9523 22.2398 13.9215 22.3139C13.8908 22.3879 13.875 22.4673 13.875 22.5474C13.875 22.6276 13.8908 22.7069 13.9215 22.781C13.9523 22.855 13.9973 22.9222 14.054 22.9788L18.9288 27.8536C18.9855 27.9103 19.0527 27.9552 19.1267 27.9859C19.2008 28.0165 19.2801 28.0323 19.3602 28.0323C19.4403 28.0323 19.5197 28.0165 19.5937 27.9859C19.6677 27.9552 19.735 27.9103 19.7916 27.8536C19.8483 27.797 19.8932 27.7297 19.9239 27.6557C19.9546 27.5817 19.9703 27.5023 19.9703 27.4222C19.9703 27.3421 19.9546 27.2627 19.9239 27.1887C19.8932 27.1147 19.8483 27.0474 19.7916 26.9908L15.9564 23.1568H30.3285C30.4901 23.1568 30.6451 23.0926 30.7594 22.9783C30.8737 22.864 30.9379 22.709 30.9379 22.5474Z" fill="black"/>
</svg>
