<svg width="24" height="25" viewBox="0 0 24 25" fill="none" xmlns="http://www.w3.org/2000/svg">
<path fill-rule="evenodd" clip-rule="evenodd" d="M15.7161 17.4736H8.49609C8.08209 17.4736 7.74609 17.1376 7.74609 16.7236C7.74609 16.3096 8.08209 15.9736 8.49609 15.9736H15.7161C16.1301 15.9736 16.4661 16.3096 16.4661 16.7236C16.4661 17.1376 16.1301 17.4736 15.7161 17.4736Z" fill="black"/>
<path fill-rule="evenodd" clip-rule="evenodd" d="M15.7161 13.2871H8.49609C8.08209 13.2871 7.74609 12.9511 7.74609 12.5371C7.74609 12.1231 8.08209 11.7871 8.49609 11.7871H15.7161C16.1301 11.7871 16.4661 12.1231 16.4661 12.5371C16.4661 12.9511 16.1301 13.2871 15.7161 13.2871Z" fill="black"/>
<path fill-rule="evenodd" clip-rule="evenodd" d="M11.2511 9.11035H8.49609C8.08209 9.11035 7.74609 8.77435 7.74609 8.36035C7.74609 7.94635 8.08209 7.61035 8.49609 7.61035H11.2511C11.6651 7.61035 12.0011 7.94635 12.0011 8.36035C12.0011 8.77435 11.6651 9.11035 11.2511 9.11035Z" fill="black"/>
<mask id="mask0_342_6306" style="mask-type:luminance" maskUnits="userSpaceOnUse" x="3" y="2" width="19" height="21">
<path fill-rule="evenodd" clip-rule="evenodd" d="M3 2.5H21.1647V22.4098H3V2.5Z" fill="white"/>
</mask>
<g mask="url(#mask0_342_6306)">
<path fill-rule="evenodd" clip-rule="evenodd" d="M15.909 4L8.22 4.004C5.892 4.018 4.5 5.458 4.5 7.857V17.053C4.5 19.468 5.905 20.91 8.256 20.91L15.945 20.907C18.273 20.893 19.665 19.451 19.665 17.053V7.857C19.665 5.442 18.261 4 15.909 4ZM8.257 22.41C5.113 22.41 3 20.257 3 17.053V7.857C3 4.624 5.047 2.523 8.215 2.504L15.908 2.5H15.909C19.053 2.5 21.165 4.653 21.165 7.857V17.053C21.165 20.285 19.118 22.387 15.95 22.407L8.257 22.41Z" fill="black"/>
</g>
</svg>
