<svg width="22" height="23" viewBox="0 0 22 23" fill="none" xmlns="http://www.w3.org/2000/svg">
<g clip-path="url(#clip0_352_15482)">
<path d="M8.9375 1.875C8.39049 1.875 7.86589 2.0923 7.47909 2.47909C7.0923 2.86589 6.875 3.39049 6.875 3.9375V4.625H2.0625C1.51549 4.625 0.990886 4.8423 0.604092 5.22909C0.217298 5.61589 0 6.14049 0 6.6875L0 17.6875C0 18.2345 0.217298 18.7591 0.604092 19.1459C0.990886 19.5327 1.51549 19.75 2.0625 19.75H19.9375C20.4845 19.75 21.0091 19.5327 21.3959 19.1459C21.7827 18.7591 22 18.2345 22 17.6875V6.6875C22 6.14049 21.7827 5.61589 21.3959 5.22909C21.0091 4.8423 20.4845 4.625 19.9375 4.625H15.125V3.9375C15.125 3.39049 14.9077 2.86589 14.5209 2.47909C14.1341 2.0923 13.6095 1.875 13.0625 1.875H8.9375ZM8.9375 3.25H13.0625C13.2448 3.25 13.4197 3.32243 13.5486 3.45136C13.6776 3.5803 13.75 3.75516 13.75 3.9375V4.625H8.25V3.9375C8.25 3.75516 8.32243 3.5803 8.45136 3.45136C8.5803 3.32243 8.75516 3.25 8.9375 3.25ZM11.5307 12.7567L20.625 10.3326V17.6875C20.625 17.8698 20.5526 18.0447 20.4236 18.1736C20.2947 18.3026 20.1198 18.375 19.9375 18.375H2.0625C1.88016 18.375 1.7053 18.3026 1.57636 18.1736C1.44743 18.0447 1.375 17.8698 1.375 17.6875V10.3313L10.4692 12.7567C10.817 12.8494 11.183 12.8494 11.5307 12.7567ZM2.0625 6H19.9375C20.1198 6 20.2947 6.07243 20.4236 6.20136C20.5526 6.3303 20.625 6.50516 20.625 6.6875V8.9095L11.1774 11.4285C11.0612 11.4595 10.9388 11.4595 10.8226 11.4285L1.375 8.9095V6.6875C1.375 6.50516 1.44743 6.3303 1.57636 6.20136C1.7053 6.07243 1.88016 6 2.0625 6Z" fill="black"/>
</g>
<defs>
<clipPath id="clip0_352_15482">
<rect width="22" height="22" fill="white" transform="translate(0 0.5)"/>
</clipPath>
</defs>
</svg>
