<svg width="24" height="25" viewBox="0 0 24 25" fill="none" xmlns="http://www.w3.org/2000/svg">
<g clip-path="url(#clip0_352_15476)">
<path d="M12.7505 8.75C12.7505 8.55109 12.6715 8.36032 12.5309 8.21967C12.3902 8.07902 12.1994 8 12.0005 8C11.8016 8 11.6108 8.07902 11.4702 8.21967C11.3295 8.36032 11.2505 8.55109 11.2505 8.75V13.793L9.10702 17.363C9.00458 17.5337 8.97414 17.738 9.02238 17.9312C9.07062 18.1243 9.19361 18.2903 9.36427 18.3928C9.53494 18.4952 9.73931 18.5256 9.93243 18.4774C10.1255 18.4292 10.2916 18.3062 10.394 18.1355L12.644 14.3855C12.7138 14.269 12.7506 14.1358 12.7505 14V8.75Z" fill="black"/>
<path d="M9.75 0.5C9.55109 0.5 9.36032 0.579018 9.21967 0.71967C9.07902 0.860322 9 1.05109 9 1.25C9 1.44891 9.07902 1.63968 9.21967 1.78033C9.36032 1.92098 9.55109 2 9.75 2H10.5V3.605C8.45741 3.9001 6.54705 4.79051 5.00757 6.16501C3.46808 7.5395 2.36772 9.33714 1.84394 11.3334C1.32016 13.3296 1.39618 15.4359 2.06251 17.3892C2.72884 19.3424 3.95593 21.0561 5.5905 22.316L4.6875 23.219C4.54667 23.3596 4.46747 23.5504 4.46733 23.7495C4.46719 23.9485 4.54612 24.1394 4.68675 24.2803C4.82738 24.4211 5.0182 24.5003 5.21722 24.5004C5.41624 24.5006 5.60717 24.4216 5.748 24.281L6.867 23.162C8.43452 24.0419 10.2024 24.5027 12 24.5C13.7976 24.5027 15.5655 24.0419 17.133 23.162L18.252 24.281C18.3928 24.4216 18.5838 24.5006 18.7828 24.5004C18.9818 24.5003 19.1726 24.4211 19.3132 24.2803C19.4539 24.1394 19.5328 23.9485 19.5327 23.7495C19.5325 23.5504 19.4533 23.3596 19.3125 23.219L18.411 22.316C20.0456 21.056 21.2727 19.3422 21.9389 17.3888C22.6052 15.4354 22.6811 13.329 22.1571 11.3328C21.6332 9.33652 20.5326 7.5389 18.9929 6.1645C17.4532 4.7901 15.5427 3.89986 13.5 3.605V2H14.25C14.4489 2 14.6397 1.92098 14.7803 1.78033C14.921 1.63968 15 1.44891 15 1.25C15 1.05109 14.921 0.860322 14.7803 0.71967C14.6397 0.579018 14.4489 0.5 14.25 0.5H9.75ZM11.307 5.027C11.7683 4.99192 12.2317 4.99192 12.693 5.027C15.013 5.20617 17.1734 6.27694 18.721 8.01463C20.2686 9.75231 21.083 12.0219 20.9933 14.347C20.9037 16.6722 19.9169 18.8723 18.2402 20.4857C16.5634 22.099 14.3269 23.0003 12 23.0003C9.67309 23.0003 7.43661 22.099 5.75984 20.4857C4.08307 18.8723 3.09634 16.6722 3.00668 14.347C2.91703 12.0219 3.73143 9.75231 5.27899 8.01463C6.82656 6.27694 8.987 5.20617 11.307 5.027ZM3.79931e-09 5.75C3.79931e-09 6.8795 0.4995 7.8935 1.29 8.5805C2.44762 6.30042 4.30042 4.44762 6.5805 3.29C6.07932 2.7133 5.41393 2.30344 4.67341 2.1153C3.93289 1.92716 3.15256 1.96971 2.43689 2.23725C1.72121 2.50479 1.10433 2.98456 0.668826 3.61234C0.233319 4.24012 -3.43805e-05 4.98595 3.79931e-09 5.75ZM20.25 2C19.1205 2 18.1065 2.4995 17.4195 3.29C19.6996 4.44762 21.5524 6.30042 22.71 8.5805C23.2867 8.07932 23.6966 7.41393 23.8847 6.67341C24.0728 5.93289 24.0303 5.15256 23.7628 4.43689C23.4952 3.72121 23.0154 3.10433 22.3877 2.66883C21.7599 2.23332 21.014 1.99997 20.25 2Z" fill="black"/>
</g>
<defs>
<clipPath id="clip0_352_15476">
<rect width="24" height="24" fill="white" transform="translate(0 0.5)"/>
</clipPath>
</defs>
</svg>
