<svg width="20" height="20" viewBox="0 0 20 20" fill="none" xmlns="http://www.w3.org/2000/svg">
<path d="M9.07088 1.16801C9.41462 0.351549 10.5854 0.35155 10.9291 1.16801L12.9579 5.9869C13.1029 6.3311 13.4306 6.56628 13.8067 6.59606L19.0727 7.01314C19.9649 7.08381 20.3267 8.1838 19.6469 8.75906L15.6348 12.1543C15.3482 12.3969 15.223 12.7774 15.3106 13.14L16.5363 18.2167C16.744 19.0768 15.7969 19.7567 15.033 19.2958L10.5245 16.5752C10.2025 16.3809 9.7975 16.3809 9.47548 16.5752L4.96699 19.2958C4.20311 19.7567 3.25596 19.0768 3.46363 18.2167L4.68942 13.14C4.77698 12.7774 4.65182 12.3969 4.36526 12.1543L0.353062 8.75906C-0.326718 8.1838 0.0350679 7.08381 0.927291 7.01314L6.19336 6.59606C6.5695 6.56628 6.89716 6.3311 7.04207 5.9869L9.07088 1.16801Z" fill="black"/>
</svg>
