<svg width="24" height="25" viewBox="0 0 24 25" fill="none" xmlns="http://www.w3.org/2000/svg">
<g clip-path="url(#clip0_352_15473)">
<path fill-rule="evenodd" clip-rule="evenodd" d="M4.65 17.3C4.71986 17.2069 4.81045 17.1313 4.91459 17.0792C5.01873 17.0271 5.13357 17 5.25 17H9C9.19891 17 9.38968 17.079 9.53033 17.2197C9.67098 17.3603 9.75 17.5511 9.75 17.75C9.75 17.9489 9.67098 18.1397 9.53033 18.2803C9.38968 18.421 9.19891 18.5 9 18.5H5.625L2.25 23H21.75L18.375 18.5H15C14.8011 18.5 14.6103 18.421 14.4697 18.2803C14.329 18.1397 14.25 17.9489 14.25 17.75C14.25 17.5511 14.329 17.3603 14.4697 17.2197C14.6103 17.079 14.8011 17 15 17H18.75C18.8664 17 18.9813 17.0271 19.0854 17.0792C19.1896 17.1313 19.2801 17.2069 19.35 17.3L23.85 23.3C23.9336 23.4114 23.9845 23.5439 23.997 23.6826C24.0095 23.8214 23.9831 23.9608 23.9208 24.0854C23.8585 24.21 23.7628 24.3148 23.6443 24.388C23.5258 24.4612 23.3893 24.5 23.25 24.5H0.75C0.610716 24.5 0.474184 24.4612 0.355702 24.388C0.23722 24.3148 0.14147 24.21 0.07918 24.0854C0.0168903 23.9608 -0.00947761 23.8214 0.00303087 23.6826C0.0155393 23.5439 0.06643 23.4114 0.15 23.3L4.65 17.3Z" fill="black"/>
<path fill-rule="evenodd" clip-rule="evenodd" d="M12 1.99993C11.4091 1.99993 10.8239 2.11633 10.2779 2.34247C9.73196 2.56862 9.23588 2.90009 8.81802 3.31795C8.40016 3.73582 8.06869 4.23189 7.84254 4.77786C7.6164 5.32382 7.5 5.90898 7.5 6.49993C7.5 7.09088 7.6164 7.67604 7.84254 8.22201C8.06869 8.76797 8.40016 9.26405 8.81802 9.68191C9.23588 10.0998 9.73196 10.4312 10.2779 10.6574C10.8239 10.8835 11.4091 10.9999 12 10.9999C13.1935 10.9999 14.3381 10.5258 15.182 9.68191C16.0259 8.838 16.5 7.69341 16.5 6.49993C16.5 5.30646 16.0259 4.16187 15.182 3.31795C14.3381 2.47404 13.1935 1.99993 12 1.99993ZM6 6.49993C6.00011 5.34527 6.33339 4.21517 6.95984 3.24522C7.5863 2.27527 8.47932 1.50669 9.53176 1.03169C10.5842 0.556695 11.7513 0.395461 12.8931 0.567337C14.0349 0.739214 15.1029 1.2369 15.9688 2.00068C16.8348 2.76445 17.462 3.76188 17.7751 4.87326C18.0883 5.98465 18.0741 7.16279 17.7343 8.26631C17.3945 9.36984 16.7434 10.3519 15.8593 11.0946C14.9752 11.8373 13.8956 12.3091 12.75 12.4534V20.7499C12.75 20.9488 12.671 21.1396 12.5303 21.2803C12.3897 21.4209 12.1989 21.4999 12 21.4999C11.8011 21.4999 11.6103 21.4209 11.4697 21.2803C11.329 21.1396 11.25 20.9488 11.25 20.7499V12.4549C9.79945 12.2722 8.46553 11.5661 7.49882 10.4693C6.53211 9.37248 5.99913 7.96045 6 6.49843V6.49993Z" fill="black"/>
</g>
<defs>
<clipPath id="clip0_352_15473">
<rect width="24" height="24" fill="white" transform="translate(0 0.5)"/>
</clipPath>
</defs>
</svg>
