<svg width="24" height="25" viewBox="0 0 24 25" fill="none" xmlns="http://www.w3.org/2000/svg">
<g clip-path="url(#clip0_352_15479)">
<path fill-rule="evenodd" clip-rule="evenodd" d="M22.1445 0.612324C22.2531 0.679515 22.3428 0.773342 22.405 0.884908C22.4673 0.996475 22.4999 1.12208 22.5 1.24982V23.7498C22.5 23.9487 22.421 24.1395 22.2803 24.2802C22.1397 24.4208 21.9489 24.4998 21.75 24.4998H17.25C17.0511 24.4998 16.8603 24.4208 16.7197 24.2802C16.579 24.1395 16.5 23.9487 16.5 23.7498V21.4998H15V23.7498C15 23.9487 14.921 24.1395 14.7803 24.2802C14.6397 24.4208 14.4489 24.4998 14.25 24.4998H0.75C0.551088 24.4998 0.360322 24.4208 0.21967 24.2802C0.0790176 24.1395 0 23.9487 0 23.7498V15.4998C0.00011947 15.3425 0.0497221 15.1892 0.141787 15.0616C0.233853 14.934 0.363717 14.8385 0.513 14.7888L9 11.9598V7.24982C9 7.11066 9.03873 6.97423 9.11185 6.85582C9.18496 6.73741 9.28958 6.64167 9.414 6.57932L21.414 0.579324C21.5285 0.522032 21.6557 0.494988 21.7835 0.500764C21.9114 0.506541 22.0357 0.544945 22.1445 0.612324ZM9 13.5408L1.5 16.0398V22.9998H9V13.5408ZM10.5 22.9998H13.5V20.7498C13.5 20.5509 13.579 20.3601 13.7197 20.2195C13.8603 20.0788 14.0511 19.9998 14.25 19.9998H17.25C17.4489 19.9998 17.6397 20.0788 17.7803 20.2195C17.921 20.3601 18 20.5509 18 20.7498V22.9998H21V2.46332L10.5 7.71332V22.9998Z" fill="black"/>
<path d="M3 17H4.5V18.5H3V17ZM6 17H7.5V18.5H6V17ZM3 20H4.5V21.5H3V20ZM6 20H7.5V21.5H6V20ZM12 14H13.5V15.5H12V14ZM15 14H16.5V15.5H15V14ZM12 17H13.5V18.5H12V17ZM15 17H16.5V18.5H15V17ZM18 14H19.5V15.5H18V14ZM18 17H19.5V18.5H18V17ZM12 11H13.5V12.5H12V11ZM15 11H16.5V12.5H15V11ZM18 11H19.5V12.5H18V11ZM12 8H13.5V9.5H12V8ZM15 8H16.5V9.5H15V8ZM18 8H19.5V9.5H18V8ZM18 5H19.5V6.5H18V5Z" fill="black"/>
</g>
<defs>
<clipPath id="clip0_352_15479">
<rect width="24" height="24" fill="white" transform="translate(0 0.5)"/>
</clipPath>
</defs>
</svg>
