<svg width="57" height="58" viewBox="0 0 57 58" fill="none" xmlns="http://www.w3.org/2000/svg">
<g clip-path="url(#clip0_589_9401)">
<path d="M31.578 0.664175C28.1723 -0.187262 25.0087 2.38842 24.7808 5.72292C24.5243 9.46711 23.9614 12.9049 23.256 14.9498C22.8107 16.2323 21.5496 18.5586 19.551 20.7887C17.5667 23.0082 14.9839 24.9854 11.9593 25.8119C9.56531 26.4638 7.125 28.5372 7.125 31.5653V45.8189C7.125 48.8292 9.55463 51.0344 12.2835 51.3229C16.0954 51.729 17.8552 52.8014 19.6507 53.8986L19.8218 54.0055C20.7908 54.5933 21.8809 55.2452 23.2774 55.7297C24.6917 56.2142 26.3447 56.5028 28.5 56.5028H40.9688C44.3068 56.5028 46.6652 54.8035 47.8586 52.7123C48.4354 51.7255 48.7472 50.6062 48.7635 49.4633C48.7635 48.9218 48.6816 48.3518 48.4892 47.8103C49.2052 46.8734 49.8429 45.7512 50.2277 44.6005C50.6196 43.4249 50.8404 41.8859 50.2419 40.5072C50.4877 40.044 50.6694 39.5489 50.8084 39.0715C51.0827 38.1096 51.2109 37.048 51.2109 36.0184C51.2109 34.9924 51.0827 33.9344 50.8084 32.9689C50.6838 32.5251 50.5192 32.0935 50.3167 31.6793C50.9405 30.7918 51.3419 29.7673 51.487 28.6923C51.632 27.6172 51.5166 26.523 51.1504 25.5019C50.4165 23.3929 48.7207 21.5832 46.8754 20.9704C43.8579 19.9658 40.4522 19.9872 37.9121 20.2187C37.3848 20.2662 36.8586 20.3256 36.3339 20.3969C37.5698 15.1044 37.494 9.59007 36.1131 4.33355C35.8728 3.49134 35.4119 2.72859 34.7781 2.12419C34.1443 1.5198 33.3605 1.09569 32.5078 0.895737L31.578 0.664175ZM40.9688 52.9439H28.5C26.6831 52.9439 25.4256 52.698 24.4388 52.3596C23.4377 52.014 22.6361 51.5474 21.6743 50.9595L21.5318 50.874C19.5546 49.6664 17.2639 48.2699 12.6611 47.7818C11.4748 47.6535 10.6875 46.7487 10.6875 45.8224V31.5653C10.6875 30.6604 11.4926 29.6309 12.8962 29.2497C16.7972 28.1809 19.9393 25.7014 22.2086 23.1649C24.4708 20.6355 25.9991 17.9102 26.619 16.1183C27.4847 13.6245 28.0689 9.8198 28.3361 5.96517C28.4252 4.67555 29.6186 3.84905 30.7123 4.1198L31.6457 4.35492C32.2157 4.49742 32.5648 4.86436 32.6717 5.26336C34.1266 10.8067 33.9472 16.6525 32.1551 22.0962C32.0537 22.3989 32.0355 22.7234 32.1025 23.0356C32.1694 23.3478 32.3191 23.6363 32.5358 23.8708C32.7525 24.1053 33.0282 24.2773 33.3342 24.3687C33.6401 24.4601 33.965 24.4676 34.2748 24.3904L34.2855 24.3869L34.3354 24.3762L34.542 24.3263C35.7602 24.0676 36.9926 23.8808 38.2328 23.767C40.5947 23.5532 43.4233 23.5746 45.7496 24.3512C46.3731 24.5579 47.3527 25.42 47.7803 26.6669C48.1614 27.7641 48.0902 29.0537 46.8326 30.3077L45.5751 31.5653L46.8326 32.8264C46.9858 32.9796 47.2067 33.3287 47.3813 33.9486C47.5522 34.5435 47.6484 35.2667 47.6484 36.0184C47.6484 36.7737 47.5522 37.4933 47.3813 38.0918C47.2031 38.7117 46.9858 39.0608 46.8326 39.214L45.5751 40.4715L46.8326 41.7327C47.0001 41.9001 47.2209 42.3632 46.8504 43.4712C46.4644 44.5456 45.8507 45.5238 45.0514 46.339L43.7938 47.5965L45.0514 48.8577C45.0728 48.8755 45.1974 49.0358 45.1974 49.4633C45.1816 49.9858 45.0333 50.4958 44.7664 50.9453C44.1786 51.9713 42.9744 52.9403 40.9688 52.9403V52.9439Z" fill="white"/>
</g>
<defs>
<clipPath id="clip0_589_9401">
<rect width="57" height="57" fill="white" transform="translate(0 0.5)"/>
</clipPath>
</defs>
</svg>
