<svg width="41" height="34" viewBox="0 0 41 34" fill="none" xmlns="http://www.w3.org/2000/svg">
<g clip-path="url(#clip0_2063_2158)">
<path d="M19.8125 2.44971C21.1717 2.44971 22.4753 2.89747 23.4364 3.6945C24.3975 4.49153 24.9375 5.57254 24.9375 6.69971V15.1997H14.6875V6.69971C14.6875 5.57254 15.2275 4.49153 16.1886 3.6945C17.1497 2.89747 18.4533 2.44971 19.8125 2.44971ZM27.5 15.1997V6.69971C27.5 5.00895 26.6901 3.38745 25.2484 2.1919C23.8067 0.996357 21.8514 0.324707 19.8125 0.324707C17.7736 0.324707 15.8183 0.996357 14.3766 2.1919C12.9349 3.38745 12.125 5.00895 12.125 6.69971V15.1997C10.7658 15.1997 9.4622 15.6475 8.50108 16.4445C7.53995 17.2415 7 18.3225 7 19.4497V30.0747C7 31.2019 7.53995 32.2829 8.50108 33.0799C9.4622 33.8769 10.7658 34.3247 12.125 34.3247H27.5C28.8592 34.3247 30.1628 33.8769 31.1239 33.0799C32.085 32.2829 32.625 31.2019 32.625 30.0747V19.4497C32.625 18.3225 32.085 17.2415 31.1239 16.4445C30.1628 15.6475 28.8592 15.1997 27.5 15.1997ZM12.125 17.3247H27.5C28.1796 17.3247 28.8314 17.5486 29.312 17.9471C29.7925 18.3456 30.0625 18.8861 30.0625 19.4497V30.0747C30.0625 30.6383 29.7925 31.1788 29.312 31.5773C28.8314 31.9758 28.1796 32.1997 27.5 32.1997H12.125C11.4454 32.1997 10.7936 31.9758 10.313 31.5773C9.83248 31.1788 9.5625 30.6383 9.5625 30.0747V19.4497C9.5625 18.8861 9.83248 18.3456 10.313 17.9471C10.7936 17.5486 11.4454 17.3247 12.125 17.3247Z" fill="white"/>
</g>
<defs>
<clipPath id="clip0_2063_2158">
<rect width="41" height="34" fill="white"/>
</clipPath>
</defs>
</svg>
