<svg width="64" height="53" viewBox="0 0 64 53" fill="none" xmlns="http://www.w3.org/2000/svg">
<g clip-path="url(#clip0_589_9354)">
<path d="M30.9277 3.81836C33.0495 3.81836 35.0843 4.51635 36.5846 5.75878C38.0849 7.00121 38.9277 8.6863 38.9277 10.4434V23.6934H22.9277V10.4434C22.9277 8.6863 23.7706 7.00121 25.2709 5.75878C26.7712 4.51635 28.806 3.81836 30.9277 3.81836ZM42.9277 23.6934V10.4434C42.9277 7.80777 41.6635 5.28013 39.413 3.41649C37.1626 1.55284 34.1103 0.505859 30.9277 0.505859C27.7451 0.505859 24.6929 1.55284 22.4425 3.41649C20.192 5.28013 18.9277 7.80777 18.9277 10.4434V23.6934C16.806 23.6934 14.7712 24.3913 13.2709 25.6338C11.7706 26.8762 10.9277 28.5613 10.9277 30.3184V46.8809C10.9277 48.6379 11.7706 50.323 13.2709 51.5654C14.7712 52.8079 16.806 53.5059 18.9277 53.5059H42.9277C45.0495 53.5059 47.0843 52.8079 48.5846 51.5654C50.0849 50.323 50.9277 48.6379 50.9277 46.8809V30.3184C50.9277 28.5613 50.0849 26.8762 48.5846 25.6338C47.0843 24.3913 45.0495 23.6934 42.9277 23.6934ZM18.9277 27.0059H42.9277C43.9886 27.0059 45.006 27.3549 45.7562 27.9761C46.5063 28.5973 46.9277 29.4398 46.9277 30.3184V46.8809C46.9277 47.7594 46.5063 48.6019 45.7562 49.2231C45.006 49.8444 43.9886 50.1934 42.9277 50.1934H18.9277C17.8669 50.1934 16.8495 49.8444 16.0993 49.2231C15.3492 48.6019 14.9277 47.7594 14.9277 46.8809V30.3184C14.9277 29.4398 15.3492 28.5973 16.0993 27.9761C16.8495 27.3549 17.8669 27.0059 18.9277 27.0059Z" fill="white"/>
</g>
<defs>
<clipPath id="clip0_589_9354">
<rect width="64" height="53" fill="white"/>
</clipPath>
</defs>
</svg>
