<svg width="36" height="36" viewBox="0 0 36 36" fill="none" xmlns="http://www.w3.org/2000/svg">
<path d="M33.75 31.5C33.75 31.5 36 31.5 36 29.25C36 27 33.75 20.25 24.75 20.25C15.75 20.25 13.5 27 13.5 29.25C13.5 31.5 15.75 31.5 15.75 31.5H33.75ZM15.7995 29.25C15.7829 29.2477 15.7664 29.2447 15.75 29.241C15.7522 28.647 16.1257 26.9235 17.46 25.371C18.702 23.9153 20.8845 22.5 24.75 22.5C28.6133 22.5 30.7957 23.9175 32.04 25.371C33.3742 26.9235 33.7455 28.6493 33.75 29.241L33.732 29.2455C33.7215 29.2473 33.711 29.2488 33.7005 29.25H15.7995ZM24.75 15.75C25.9435 15.75 27.0881 15.2759 27.932 14.432C28.7759 13.5881 29.25 12.4435 29.25 11.25C29.25 10.0565 28.7759 8.91193 27.932 8.06802C27.0881 7.22411 25.9435 6.75 24.75 6.75C23.5565 6.75 22.4119 7.22411 21.568 8.06802C20.7241 8.91193 20.25 10.0565 20.25 11.25C20.25 12.4435 20.7241 13.5881 21.568 14.432C22.4119 15.2759 23.5565 15.75 24.75 15.75ZM31.5 11.25C31.5 12.1364 31.3254 13.0142 30.9862 13.8331C30.647 14.6521 30.1498 15.3962 29.523 16.023C28.8962 16.6498 28.1521 17.147 27.3331 17.4862C26.5142 17.8254 25.6364 18 24.75 18C23.8636 18 22.9858 17.8254 22.1669 17.4862C21.3479 17.147 20.6038 16.6498 19.977 16.023C19.3502 15.3962 18.853 14.6521 18.5138 13.8331C18.1746 13.0142 18 12.1364 18 11.25C18 9.45979 18.7112 7.7429 19.977 6.47703C21.2429 5.21116 22.9598 4.5 24.75 4.5C26.5402 4.5 28.2571 5.21116 29.523 6.47703C30.7888 7.7429 31.5 9.45979 31.5 11.25ZM15.606 20.88C14.706 20.5966 13.7782 20.4103 12.8385 20.3243C12.3105 20.274 11.7804 20.2493 11.25 20.25C2.25 20.25 0 27 0 29.25C0 30.7507 0.74925 31.5 2.25 31.5H11.736C11.4024 30.7976 11.2361 30.0275 11.25 29.25C11.25 26.9775 12.0983 24.6555 13.7025 22.716C14.2493 22.0545 14.886 21.4357 15.606 20.88ZM11.07 22.5C9.73835 24.5009 9.01899 26.8466 9 29.25H2.25C2.25 28.665 2.619 26.9325 3.96 25.371C5.18625 23.94 7.317 22.545 11.07 22.5023V22.5ZM3.375 12.375C3.375 10.5848 4.08616 8.8679 5.35203 7.60203C6.6179 6.33616 8.33479 5.625 10.125 5.625C11.9152 5.625 13.6321 6.33616 14.898 7.60203C16.1638 8.8679 16.875 10.5848 16.875 12.375C16.875 14.1652 16.1638 15.8821 14.898 17.148C13.6321 18.4138 11.9152 19.125 10.125 19.125C8.33479 19.125 6.6179 18.4138 5.35203 17.148C4.08616 15.8821 3.375 14.1652 3.375 12.375ZM10.125 7.875C8.93153 7.875 7.78693 8.34911 6.94302 9.19302C6.09911 10.0369 5.625 11.1815 5.625 12.375C5.625 13.5685 6.09911 14.7131 6.94302 15.557C7.78693 16.4009 8.93153 16.875 10.125 16.875C11.3185 16.875 12.4631 16.4009 13.307 15.557C14.1509 14.7131 14.625 13.5685 14.625 12.375C14.625 11.1815 14.1509 10.0369 13.307 9.19302C12.4631 8.34911 11.3185 7.875 10.125 7.875Z" fill="white"/>
</svg>
