<svg width="34" height="34" viewBox="0 0 34 34" fill="none" xmlns="http://www.w3.org/2000/svg">
<g clip-path="url(#clip0_2063_2148)">
<path d="M6.09032 31.5562C5.92457 32.4997 6.85532 33.2371 7.67557 32.8164L17.0043 28.0224L26.3309 32.8164C27.1512 33.2371 28.0819 32.4997 27.9162 31.5584L26.1524 21.5071L33.6367 14.3756C34.3379 13.7084 33.9767 12.4886 33.0374 12.3569L22.6292 10.8779L17.9882 1.68299C17.8998 1.4966 17.7603 1.33913 17.586 1.22886C17.4116 1.11859 17.2095 1.06006 17.0033 1.06006C16.797 1.06006 16.5949 1.11859 16.4206 1.22886C16.2462 1.33913 16.1067 1.4966 16.0183 1.68299L11.3773 10.88L0.969068 12.359C0.0319432 12.4907 -0.331432 13.7105 0.367693 14.3777L7.85407 21.5092L6.09032 31.5605V31.5562ZM16.5134 25.6764L8.68069 29.7011L10.1554 21.2925C10.19 21.0989 10.1765 20.8998 10.1161 20.7127C10.0557 20.5256 9.95026 20.3562 9.80907 20.2194L3.63382 14.3331L12.2443 13.1091C12.4226 13.0822 12.5917 13.0124 12.7372 12.9059C12.8826 12.7993 13.0001 12.659 13.0794 12.4971L17.0001 4.72386L20.9249 12.4971C21.0043 12.659 21.1218 12.7993 21.2672 12.9059C21.4127 13.0124 21.5818 13.0822 21.7601 13.1091L30.3706 14.331L24.1953 20.2172C24.0538 20.3543 23.9482 20.5241 23.8878 20.7116C23.8274 20.8991 23.814 21.0986 23.8489 21.2925L25.3237 29.7011L17.4909 25.6764C17.3395 25.5983 17.1715 25.5575 17.0011 25.5575C16.8307 25.5575 16.6628 25.5983 16.5113 25.6764H16.5134Z" fill="white"/>
</g>
<defs>
<clipPath id="clip0_2063_2148">
<rect width="34" height="34" fill="white"/>
</clipPath>
</defs>
</svg>
